HIERARCHY
ROOT mixamorig:Hips
{
	OFFSET 0.000000 99.791901 0.000000
	CHANNELS 6 Xposition Yposition Zposition Xrotation Yrotation Zrotation
	JOINT mixamorig:Spine
	{
		OFFSET 0.000038 9.923500 -1.227300
		CHANNELS 6 Xposition Yposition Zposition Xrotation Yrotation Zrotation
		JOINT mixamorig:Spine1
		{
			OFFSET -0.001154 11.645462 -1.422353
			CHANNELS 3 Xrotation Yrotation Zrotation
			JOINT mixamorig:Spine2
			{
				OFFSET -0.001065 13.360161 -1.626458
				CHANNELS 3 Xrotation Yrotation Zrotation
				JOINT mixamorig:Neck
				{
					OFFSET -0.001308 15.032516 0.792905
					CHANNELS 6 Xposition Yposition Zposition Xrotation Yrotation Zrotation
					JOINT mixamorig:Head
					{
						OFFSET -0.000902 10.321808 3.142400
						CHANNELS 6 Xposition Yposition Zposition Xrotation Yrotation Zrotation
						JOINT mixamorig:HeadTop_End
						{
							OFFSET -0.001416 18.474701 6.636400
							CHANNELS 6 Xposition Yposition Zposition Xrotation Yrotation Zrotation
							End Site
							{
								OFFSET -0.001707 19.630493 0.000000
							}
						}
					}
				}
				JOINT mixamorig:LeftShoulder
				{
					OFFSET 6.105007 9.110962 0.705601
					CHANNELS 6 Xposition Yposition Zposition Xrotation Yrotation Zrotation
					JOINT mixamorig:LeftArm
					{
						OFFSET 12.655048 -0.266434 -2.600898
						CHANNELS 3 Xrotation Yrotation Zrotation
						JOINT mixamorig:LeftForeArm
						{
							OFFSET 27.404696 0.000000 0.000000
							CHANNELS 3 Xrotation Yrotation Zrotation
							JOINT mixamorig:LeftHand
							{
								OFFSET 27.614513 0.000000 0.000000
								CHANNELS 3 Xrotation Yrotation Zrotation
								JOINT mixamorig:LeftHandThumb1
								{
									OFFSET 3.788795 -2.167099 3.003002
									CHANNELS 6 Xposition Yposition Zposition Xrotation Yrotation Zrotation
									JOINT mixamorig:LeftHandThumb2
									{
										OFFSET 3.675461 -2.122025 2.122029
										CHANNELS 6 Xposition Yposition Zposition Xrotation Yrotation Zrotation
										JOINT mixamorig:LeftHandThumb3
										{
											OFFSET 3.394363 -1.959732 1.959735
											CHANNELS 6 Xposition Yposition Zposition Xrotation Yrotation Zrotation
											JOINT mixamorig:LeftHandThumb4
											{
												OFFSET 2.679405 -1.546951 1.546957
												CHANNELS 6 Xposition Yposition Zposition Xrotation Yrotation Zrotation
												End Site
												{
													OFFSET 2.400513 -1.530563 1.964770
												}
											}
										}
									}
								}
								JOINT mixamorig:LeftHandIndex1
								{
									OFFSET 12.266594 -0.231796 2.822001
									CHANNELS 6 Xposition Yposition Zposition Xrotation Yrotation Zrotation
									JOINT mixamorig:LeftHandIndex2
									{
										OFFSET 3.891998 0.000000 0.000000
										CHANNELS 3 Xrotation Yrotation Zrotation
										JOINT mixamorig:LeftHandIndex3
										{
											OFFSET 3.415207 0.000000 0.000000
											CHANNELS 3 Xrotation Yrotation Zrotation
											JOINT mixamorig:LeftHandIndex4
											{
												OFFSET 3.077995 0.000000 0.000000
												CHANNELS 3 Xrotation Yrotation Zrotation
												End Site
												{
													OFFSET 3.078003 0.000000 0.000140
												}
											}
										}
									}
								}
								JOINT mixamorig:LeftHandMiddle1
								{
									OFFSET 12.775497 0.000000 0.000000
									CHANNELS 6 Xposition Yposition Zposition Xrotation Yrotation Zrotation
									JOINT mixamorig:LeftHandMiddle2
									{
										OFFSET 3.613998 0.000000 0.000000
										CHANNELS 3 Xrotation Yrotation Zrotation
										JOINT mixamorig:LeftHandMiddle3
										{
											OFFSET 3.459793 0.000000 0.000000
											CHANNELS 3 Xrotation Yrotation Zrotation
											JOINT mixamorig:LeftHandMiddle4
											{
												OFFSET 3.680214 0.000000 0.000000
												CHANNELS 3 Xrotation Yrotation Zrotation
												End Site
												{
													OFFSET 3.680199 0.000031 -0.004817
												}
											}
										}
									}
								}
								JOINT mixamorig:LeftHandRing1
								{
									OFFSET 12.146996 0.009995 -2.216599
									CHANNELS 6 Xposition Yposition Zposition Xrotation Yrotation Zrotation
									JOINT mixamorig:LeftHandRing2
									{
										OFFSET 3.601196 0.000000 0.000000
										CHANNELS 3 Xrotation Yrotation Zrotation
										JOINT mixamorig:LeftHandRing3
										{
											OFFSET 3.307304 0.000000 0.000000
											CHANNELS 3 Xrotation Yrotation Zrotation
											JOINT mixamorig:LeftHandRing4
											{
												OFFSET 3.660095 0.000000 0.000000
												CHANNELS 3 Xrotation Yrotation Zrotation
												End Site
												{
													OFFSET 3.660095 -0.000107 0.005639
												}
											}
										}
									}
								}
								JOINT mixamorig:LeftHandPinky1
								{
									OFFSET 10.908195 -0.226105 -4.725800
									CHANNELS 6 Xposition Yposition Zposition Xrotation Yrotation Zrotation
									JOINT mixamorig:LeftHandPinky2
									{
										OFFSET 4.136703 0.000000 0.000000
										CHANNELS 3 Xrotation Yrotation Zrotation
										JOINT mixamorig:LeftHandPinky3
										{
											OFFSET 2.594803 0.000000 0.000000
											CHANNELS 3 Xrotation Yrotation Zrotation
											JOINT mixamorig:LeftHandPinky4
											{
												OFFSET 2.923904 0.000000 0.000000
												CHANNELS 3 Xrotation Yrotation Zrotation
												End Site
												{
													OFFSET 2.923897 0.000015 -0.003363
												}
											}
										}
									}
								}
							}
						}
					}
				}
				JOINT mixamorig:RightShoulder
				{
					OFFSET -6.106493 9.110001 0.705582
					CHANNELS 6 Xposition Yposition Zposition Xrotation Yrotation Zrotation
					JOINT mixamorig:RightArm
					{
						OFFSET -12.655064 -0.265533 -2.600914
						CHANNELS 3 Xrotation Yrotation Zrotation
						JOINT mixamorig:RightForeArm
						{
							OFFSET -27.404697 0.000000 -0.000000
							CHANNELS 3 Xrotation Yrotation Zrotation
							JOINT mixamorig:RightHand
							{
								OFFSET -27.614510 0.000000 -0.000000
								CHANNELS 3 Xrotation Yrotation Zrotation
								JOINT mixamorig:RightHandThumb1
								{
									OFFSET -3.788803 -2.167099 3.003001
									CHANNELS 6 Xposition Yposition Zposition Xrotation Yrotation Zrotation
									JOINT mixamorig:RightHandThumb2
									{
										OFFSET -3.675461 -2.122025 2.122028
										CHANNELS 6 Xposition Yposition Zposition Xrotation Yrotation Zrotation
										JOINT mixamorig:RightHandThumb3
										{
											OFFSET -3.394363 -1.959732 1.959735
											CHANNELS 6 Xposition Yposition Zposition Xrotation Yrotation Zrotation
											JOINT mixamorig:RightHandThumb4
											{
												OFFSET -2.679405 -1.546951 1.546957
												CHANNELS 6 Xposition Yposition Zposition Xrotation Yrotation Zrotation
												End Site
												{
													OFFSET -2.398972 -1.531448 1.965965
												}
											}
										}
									}
								}
								JOINT mixamorig:RightHandIndex1
								{
									OFFSET -12.266602 -0.231796 2.822000
									CHANNELS 6 Xposition Yposition Zposition Xrotation Yrotation Zrotation
									JOINT mixamorig:RightHandIndex2
									{
										OFFSET -3.891998 0.000000 0.000000
										CHANNELS 3 Xrotation Yrotation Zrotation
										JOINT mixamorig:RightHandIndex3
										{
											OFFSET -3.415207 0.000000 0.000000
											CHANNELS 3 Xrotation Yrotation Zrotation
											JOINT mixamorig:RightHandIndex4
											{
												OFFSET -3.077995 0.000000 0.000000
												CHANNELS 3 Xrotation Yrotation Zrotation
												End Site
												{
													OFFSET -3.077995 0.000504 -0.008460
												}
											}
										}
									}
								}
								JOINT mixamorig:RightHandMiddle1
								{
									OFFSET -12.775505 0.000000 -0.000000
									CHANNELS 6 Xposition Yposition Zposition Xrotation Yrotation Zrotation
									JOINT mixamorig:RightHandMiddle2
									{
										OFFSET -3.613998 0.000000 0.000000
										CHANNELS 3 Xrotation Yrotation Zrotation
										JOINT mixamorig:RightHandMiddle3
										{
											OFFSET -3.459793 0.000000 0.000000
											CHANNELS 3 Xrotation Yrotation Zrotation
											JOINT mixamorig:RightHandMiddle4
											{
												OFFSET -3.680214 0.000000 0.000000
												CHANNELS 3 Xrotation Yrotation Zrotation
												End Site
												{
													OFFSET -3.680176 0.000290 0.012574
												}
											}
										}
									}
								}
								JOINT mixamorig:RightHandRing1
								{
									OFFSET -12.147003 0.009995 -2.216600
									CHANNELS 6 Xposition Yposition Zposition Xrotation Yrotation Zrotation
									JOINT mixamorig:RightHandRing2
									{
										OFFSET -3.601196 0.000000 0.000000
										CHANNELS 3 Xrotation Yrotation Zrotation
										JOINT mixamorig:RightHandRing3
										{
											OFFSET -3.307304 0.000000 0.000000
											CHANNELS 3 Xrotation Yrotation Zrotation
											JOINT mixamorig:RightHandRing4
											{
												OFFSET -3.660103 0.000000 0.000000
												CHANNELS 3 Xrotation Yrotation Zrotation
												End Site
												{
													OFFSET -3.660103 0.000427 0.002204
												}
											}
										}
									}
								}
								JOINT mixamorig:RightHandPinky1
								{
									OFFSET -10.908203 -0.226105 -4.725801
									CHANNELS 6 Xposition Yposition Zposition Xrotation Yrotation Zrotation
									JOINT mixamorig:RightHandPinky2
									{
										OFFSET -4.136703 0.000000 0.000000
										CHANNELS 3 Xrotation Yrotation Zrotation
										JOINT mixamorig:RightHandPinky3
										{
											OFFSET -2.594803 0.000000 0.000000
											CHANNELS 3 Xrotation Yrotation Zrotation
											JOINT mixamorig:RightHandPinky4
											{
												OFFSET -2.923904 0.000000 0.000000
												CHANNELS 3 Xrotation Yrotation Zrotation
												End Site
												{
													OFFSET -2.923866 0.000595 -0.012896
												}
											}
										}
									}
								}
							}
						}
					}
				}
			}
		}
	}
	JOINT mixamorig:LeftUpLeg
	{
		OFFSET 9.124481 -6.656403 -0.055368
		CHANNELS 6 Xposition Yposition Zposition Xrotation Yrotation Zrotation
		JOINT mixamorig:LeftLeg
		{
			OFFSET 0.244688 -40.595383 -0.515629
			CHANNELS 3 Xrotation Yrotation Zrotation
			JOINT mixamorig:LeftFoot
			{
				OFFSET -0.244684 -42.047905 -2.059130
				CHANNELS 3 Xrotation Yrotation Zrotation
				JOINT mixamorig:LeftToeBase
				{
					OFFSET 0.373535 -7.208565 13.966596
					CHANNELS 3 Xrotation Yrotation Zrotation
					JOINT mixamorig:LeftToe_End
					{
						OFFSET -0.142057 -0.175231 9.997458
						CHANNELS 3 Xrotation Yrotation Zrotation
						End Site
						{
							OFFSET -0.142057 -0.175231 9.997458
						}
					}
				}
			}
		}
	}
	JOINT mixamorig:RightUpLeg
	{
		OFFSET -9.124419 -6.656395 -0.055432
		CHANNELS 6 Xposition Yposition Zposition Xrotation Yrotation Zrotation
		JOINT mixamorig:RightLeg
		{
			OFFSET -0.244683 -40.595413 -0.514284
			CHANNELS 3 Xrotation Yrotation Zrotation
			JOINT mixamorig:RightFoot
			{
				OFFSET 0.244687 -42.047836 -2.060526
				CHANNELS 3 Xrotation Yrotation Zrotation
				JOINT mixamorig:RightToeBase
				{
					OFFSET -0.373540 -7.208565 13.966594
					CHANNELS 3 Xrotation Yrotation Zrotation
					JOINT mixamorig:RightToe_End
					{
						OFFSET 0.141792 -0.175015 9.997463
						CHANNELS 3 Xrotation Yrotation Zrotation
						End Site
						{
							OFFSET 0.141792 -0.175015 9.997463
						}
					}
				}
			}
		}
	}
}
MOTION
Frames: 4
Frame Time: 0.033333
-0.601200 93.516373 -2.040249 4.734812 23.212910 -1.533768 0.000038 9.923502 -1.227299 4.341690 -2.104910 4.243127 8.885782 -3.160402 6.331787 9.057826 -3.229923 6.045977 -0.001309 15.032509 0.792912 12.529297 -3.181079 2.504625 -0.000901 10.321803 3.142397 -12.589976 -6.654707 -16.183594 -0.001418 18.474701 6.636404 -0.000004 0.000001 0.000000 6.105014 9.110941 0.705602 6.922370 -21.930885 27.305665 -69.907826 -43.694100 -46.111905 -0.000005 -22.095360 0.000012 -9.655054 -6.086870 -5.027818 3.788804 -2.167085 3.003005 0.626535 5.419197 2.939369 3.675487 -2.121998 2.122032 4.330100 -0.661770 -3.639587 3.394354 -1.959720 1.959742 7.567987 41.114781 -0.574075 2.679414 -1.546916 1.546954 -0.000001 -0.000003 0.000006 12.266606 -0.231814 2.822001 -11.214688 -7.851937 -13.475820 0.126557 2.748755 -20.406551 1.629998 4.971268 -40.072126 0.000001 0.000001 -0.000000 12.775496 0.000003 0.000005 -0.959025 -2.230413 -0.234621 1.950733 6.449941 -53.928107 -0.261685 2.389866 -17.738759 -0.000000 0.000001 -0.000000 12.147005 0.010026 -2.216597 -2.626870 11.796496 17.615338 -0.019160 3.425195 -25.377884 1.135732 4.628415 -36.595638 0.000001 0.000000 -0.000002 10.908213 -0.226107 -4.725801 3.613651 25.110958 3.251877 0.229697 3.655773 -26.762460 3.036708 6.446788 -55.038901 -0.000004 -0.000000 -0.000000 -6.106492 9.110003 0.705581 -1.246653 -15.533392 -1.645296 45.432072 106.375463 -70.458100 -0.000006 20.520853 -0.000000 10.795757 -3.978744 19.838638 -3.788808 -2.167108 3.003007 -7.743931 22.753051 -16.040394 -3.675440 -2.122048 2.122030 6.934098 -44.978838 -9.137419 -3.394385 -1.959732 1.959734 -12.903962 21.733595 7.991466 -2.679414 -1.546939 1.546957 0.000006 0.000001 -0.000006 -12.266596 -0.231768 2.821999 0.371989 -3.723794 -20.941317 1.864442 -5.469493 44.606231 -0.103875 -1.103906 8.178451 0.000001 0.000000 -0.000001 -12.775516 0.000022 -0.000002 -0.739322 -3.087166 -14.591147 2.582679 -6.730578 59.796353 1.590593 -5.456162 44.422376 0.000000 -0.000000 -0.000002 -12.147011 0.010011 -2.216603 -0.206991 -8.038016 15.475335 -0.714949 -0.996946 6.584940 -0.351837 -0.777730 5.617958 0.000001 0.000001 -0.000001 -10.908198 -0.226078 -4.725804 0.525287 -10.068837 29.061044 2.824740 -6.599650 55.817324 1.801847 -5.380762 43.052079 -0.000001 -0.000000 -0.000002 9.124482 -6.656409 -0.055372 -27.885934 6.525437 11.955070 42.291514 -8.652444 3.557850 -15.786208 -5.283031 -8.831413 -7.752354 -0.000005 0.000010 -0.000000 0.000001 0.000000 -9.124418 -6.656406 -0.055433 -19.285095 -7.821031 -2.610856 40.549091 1.132280 0.633941 -25.803608 0.155803 -0.880715 -0.000025 -0.000004 0.000000 -0.000000 -0.000001 -0.000000 
-0.238887 93.383812 -0.579466 4.674304 22.302769 -1.845576 0.000039 9.923488 -1.227299 4.345887 -2.060844 3.884722 8.844771 -3.052413 5.863970 8.994444 -3.119066 5.592537 -0.001309 15.032510 0.792906 12.348323 -2.934958 2.464212 -0.000898 10.321814 3.142394 -12.699033 -6.164560 -14.751259 -0.001413 18.474701 6.636405 -0.000000 0.000000 -0.000001 6.105009 9.110941 0.705600 6.702875 -21.409820 27.098294 -70.913107 -44.544209 -46.597798 0.000001 -22.038924 0.000010 -9.641345 -6.104522 -4.959788 3.788800 -2.167075 3.003000 0.626538 5.419198 2.939367 3.675462 -2.122024 2.122030 4.330101 -0.661768 -3.639586 3.394335 -1.959737 1.959737 7.567982 41.114775 -0.574081 2.679391 -1.546936 1.546958 -0.000001 -0.000002 0.000003 12.266599 -0.231772 2.821999 -11.214688 -7.851935 -13.475818 0.126563 2.748764 -20.406551 1.629999 4.971271 -40.072126 0.000002 -0.000000 -0.000000 12.775497 0.000017 -0.000002 -0.959025 -2.230414 -0.234624 1.950737 6.449940 -53.928100 -0.261685 2.389862 -17.738761 -0.000001 -0.000002 0.000001 12.147001 0.010045 -2.216604 -2.626869 11.796496 17.615336 -0.019159 3.425195 -25.377882 1.135728 4.628414 -36.595631 -0.000000 0.000000 -0.000000 10.908201 -0.226077 -4.725803 3.613652 25.110962 3.251875 0.229697 3.655771 -26.762457 3.036710 6.446789 -55.038901 -0.000002 -0.000000 -0.000000 -6.106493 9.109991 0.705579 -1.290783 -15.181301 -2.112531 47.860686 106.234474 -72.172498 -0.000000 20.244701 -0.000031 13.376978 -4.436272 20.776718 -3.788800 -2.167112 3.003011 -7.743929 22.753052 -16.040394 -3.675455 -2.122033 2.122028 6.934098 -44.978834 -9.137421 -3.394372 -1.959749 1.959735 -12.903962 21.733597 7.991467 -2.679403 -1.546975 1.546953 0.000002 0.000000 -0.000004 -12.266596 -0.231768 2.822000 0.371990 -3.723793 -20.941317 1.864441 -5.469494 44.606231 -0.103875 -1.103905 8.178453 0.000001 0.000000 -0.000004 -12.775516 0.000007 -0.000003 -0.739321 -3.087166 -14.591145 2.582677 -6.730576 59.796360 1.590594 -5.456164 44.422372 -0.000000 0.000000 -0.000003 -12.147015 0.010011 -2.216606 -0.206989 -8.038016 15.475334 -0.714948 -0.996946 6.584943 -0.351839 -0.777731 5.617963 0.000000 -0.000000 0.000004 -10.908222 -0.226089 -4.725806 0.525288 -10.068838 29.061044 2.824740 -6.599650 55.817320 1.801847 -5.380762 43.052076 -0.000000 -0.000000 -0.000003 9.124482 -6.656424 -0.055371 -31.625261 5.631637 12.432496 42.711738 -9.123662 2.853385 -12.646606 -5.780546 -8.255823 -7.684534 -0.000009 0.000007 -0.000000 0.000000 0.000000 -9.124419 -6.656418 -0.055431 -17.969213 -7.903308 -2.101512 40.067597 2.221044 0.646378 -26.535454 0.256071 -1.319018 -0.000044 -0.000003 0.000000 0.000000 -0.000001 0.000000 
0.269250 93.254959 0.993324 4.517822 20.814223 -2.107707 0.000038 9.923481 -1.227299 4.368550 -1.959374 3.527563 8.850626 -2.871420 5.367492 8.978331 -2.933632 5.112882 -0.001309 15.032516 0.792907 12.265135 -2.616996 2.195711 -0.000902 10.321816 3.142398 -13.348277 -5.451500 -13.188597 -0.001416 18.474716 6.636402 0.000002 -0.000000 0.000001 6.105011 9.110958 0.705603 6.408393 -20.691752 26.844223 -71.309128 -45.384572 -46.585008 0.000007 -22.507579 0.000010 -9.681308 -6.089129 -5.030308 3.788793 -2.167087 3.003006 0.626541 5.419197 2.939367 3.675471 -2.122014 2.122031 4.330099 -0.661766 -3.639586 3.394354 -1.959750 1.959729 7.567981 41.114785 -0.574084 2.679399 -1.546935 1.546955 -0.000001 -0.000004 -0.000001 12.266599 -0.231780 2.822003 -11.214690 -7.851935 -13.475816 0.126559 2.748758 -20.406553 1.630001 4.971269 -40.072122 -0.000000 -0.000004 0.000001 12.775499 0.000001 -0.000001 -0.959023 -2.230415 -0.234622 1.950736 6.449942 -53.928104 -0.261686 2.389869 -17.738758 0.000001 0.000001 0.000001 12.147001 0.010030 -2.216607 -2.626866 11.796496 17.615340 -0.019162 3.425195 -25.377880 1.135731 4.628415 -36.595634 -0.000000 0.000000 0.000002 10.908195 -0.226093 -4.725797 3.613655 25.110962 3.251878 0.229697 3.655771 -26.762457 3.036710 6.446789 -55.038894 -0.000003 -0.000001 -0.000000 -6.106495 9.110008 0.705584 -1.341503 -14.672629 -2.745872 50.565899 106.219557 -74.069242 0.000003 20.101033 -0.000022 14.894092 -4.407414 21.213709 -3.788793 -2.167112 3.003008 -7.743932 22.753052 -16.040397 -3.675448 -2.122042 2.122026 6.934101 -44.978841 -9.137420 -3.394377 -1.959744 1.959743 -12.903959 21.733595 7.991466 -2.679394 -1.546955 1.546962 0.000002 0.000006 -0.000004 -12.266588 -0.231771 2.821996 0.371990 -3.723794 -20.941319 1.864441 -5.469494 44.606227 -0.103875 -1.103905 8.178448 0.000001 0.000000 -0.000005 -12.775508 0.000018 -0.000005 -0.739322 -3.087164 -14.591152 2.582677 -6.730577 59.796360 1.590594 -5.456163 44.422372 0.000000 -0.000000 -0.000002 -12.147003 0.010028 -2.216609 -0.206990 -8.038015 15.475335 -0.714948 -0.996946 6.584944 -0.351838 -0.777731 5.617962 0.000000 0.000000 -0.000003 -10.908215 -0.226074 -4.725806 0.525287 -10.068838 29.061041 2.824741 -6.599649 55.817324 1.801848 -5.380763 43.052083 -0.000000 -0.000000 -0.000000 9.124482 -6.656411 -0.055369 -35.054730 4.873307 12.825182 42.431061 -9.363079 1.904471 -8.292873 -3.911904 -7.651192 -7.541296 -0.000004 0.000006 0.000000 -0.000000 -0.000000 -9.124419 -6.656405 -0.055431 -16.465826 -7.793224 -1.553298 39.445118 3.897936 0.424986 -27.216195 0.163960 -1.798054 -0.000007 0.000000 0.000005 0.000000 0.000003 0.000000 
0.953404 93.072189 2.665626 4.308032 18.605922 -2.365457 0.000038 9.923491 -1.227299 4.413271 -1.777036 3.190339 8.916095 -2.568037 4.819414 9.023389 -2.623289 4.582884 -0.001310 15.032525 0.792901 12.167676 -2.222200 1.654427 -0.000898 10.321825 3.142403 -14.717449 -4.472508 -11.542513 -0.001413 18.474701 6.636399 0.000000 -0.000000 -0.000000 6.105008 9.110959 0.705594 6.029957 -19.755658 26.506214 -70.969443 -46.308778 -45.819706 0.000003 -23.331043 0.000013 -9.780689 -6.036374 -5.255053 3.788801 -2.167099 3.003003 0.626541 5.419190 2.939370 3.675470 -2.122002 2.122035 4.330107 -0.661770 -3.639589 3.394342 -1.959750 1.959739 7.567982 41.114778 -0.574077 2.679419 -1.546923 1.546957 -0.000000 0.000003 0.000001 12.266592 -0.231802 2.822002 -11.214685 -7.851940 -13.475820 0.126555 2.748759 -20.406553 1.630001 4.971268 -40.072126 0.000001 -0.000000 0.000001 12.775503 0.000001 -0.000003 -0.959022 -2.230414 -0.234623 1.950736 6.449943 -53.928104 -0.261686 2.389865 -17.738758 0.000002 0.000002 -0.000001 12.147001 0.010026 -2.216606 -2.626866 11.796495 17.615336 -0.019161 3.425195 -25.377880 1.135729 4.628415 -36.595634 0.000000 -0.000000 0.000002 10.908213 -0.226075 -4.725801 3.613652 25.110962 3.251877 0.229696 3.655772 -26.762457 3.036710 6.446789 -55.038897 0.000001 -0.000001 -0.000000 -6.106492 9.110002 0.705574 -1.382995 -14.013185 -3.467030 53.106510 106.126906 -75.822012 -0.000010 20.240361 -0.000004 14.829102 -3.763684 20.957230 -3.788796 -2.167112 3.003005 -7.743934 22.753051 -16.040397 -3.675456 -2.122002 2.122040 6.934101 -44.978845 -9.137421 -3.394379 -1.959736 1.959743 -12.903961 21.733597 7.991467 -2.679394 -1.546952 1.546952 0.000002 0.000006 -0.000005 -12.266588 -0.231768 2.821996 0.371990 -3.723793 -20.941317 1.864441 -5.469496 44.606227 -0.103875 -1.103905 8.178450 -0.000001 -0.000000 -0.000004 -12.775508 0.000009 -0.000002 -0.739321 -3.087164 -14.591147 2.582677 -6.730577 59.796360 1.590593 -5.456164 44.422372 0.000001 -0.000001 -0.000003 -12.146999 0.010009 -2.216606 -0.206990 -8.038017 15.475330 -0.714948 -0.996947 6.584944 -0.351837 -0.777730 5.617963 0.000000 -0.000000 -0.000004 -10.908215 -0.226093 -4.725807 0.525288 -10.068837 29.061044 2.824739 -6.599650 55.817324 1.801847 -5.380763 43.052083 0.000000 -0.000000 -0.000002 9.124483 -6.656404 -0.055366 -37.644929 4.356484 13.098063 40.589868 -9.573313 1.168216 -4.024538 -2.451295 -7.289168 -5.583223 -0.000013 0.000003 0.000000 -0.000000 0.000000 -9.124418 -6.656396 -0.055429 -14.945808 -7.508086 -1.063207 38.910952 5.935018 -0.038257 -27.934707 0.141579 -2.141422 0.000006 -0.000001 0.000002 -0.000000 0.000001 -0.000000 
